<?xml version="1.0" encoding="UTF-8"?>
<svg id="Capa_2" data-name="Capa 2" xmlns="http://www.w3.org/2000/svg" viewBox="0 0 81.9 105.58">
  <g id="Capa_1-2" data-name="Capa 1">
    <path d="M56.11,68.63l4.98-1.96,20.81,38.91h-29.71l-20.66-38.76h-5.28v38.76H0V0H5.43V100.15h15.23V61.54l14.03-.15,20.81,38.76h17.35l-16.74-31.52ZM15.69,5.43V96.38h-5.43V0h26.7c17.35,0,29.71,5.73,35.75,16.44,2.56,4.98,3.92,10.56,3.92,16.74,0,18.55-9.65,29.56-27.75,32.73l16.44,30.62h-6.18l-18.85-34.84,4.07-.45c17.04-1.81,26.85-11.76,26.85-28.06,0-17.95-12.37-27.75-34.24-27.75H15.69Zm4.98,51.28v-5.28h15.08c17.04,0,25.04-5.58,25.04-17.5s-7.84-17.95-21.27-17.95h-13.42v5.13h11.77c7.84,0,12.97,1.81,15.54,5.58,1.36,1.66,1.96,3.77,1.96,6.49,0,8.6-7.09,13.27-20.51,13.27h-14.33v-14.78h5.58v9.35h8.75c10.11,0,15.08-2.56,15.08-7.84,0-4.52-4.07-6.79-12.07-6.79H20.51V10.56h19c16.44,0,26.7,8.45,26.7,23.38,0,15.69-9.8,22.78-30.47,22.78h-15.08Z"/>
  </g>
</svg>